<?xml version="1.0" encoding="UTF-8" standalone="no"?> <!-- Created with Inkscape (http://www.inkscape.org/) --> <svg xmlns:dc="http://purl.org/dc/elements/1.1/" xmlns:cc="http://creativecommons.org/ns#" xmlns:rdf="http://www.w3.org/1999/02/22-rdf-syntax-ns#" xmlns:svg="http://www.w3.org/2000/svg" xmlns="http://www.w3.org/2000/svg" xmlns:sodipodi="http://sodipodi.sourceforge.net/DTD/sodipodi-0.dtd" xmlns:inkscape="http://www.inkscape.org/namespaces/inkscape" width="64px" height="64px" viewBox="0 0 64 64" id="SVGRoot" inkscape:version="0.92.1 r15371" sodipodi:docname="icon-woman-presentation-circle-BW-64x64.svg"><title id="title5685">Woman presentation icon</title><defs id="defs2"><filter inkscape:collect="always" style="color-interpolation-filters:sRGB" id="filter5456" x="-0.072387274" width="1.1447745" y="-0.035903957" height="1.0718079"><feGaussianBlur inkscape:collect="always" stdDeviation="0.2348382" id="feGaussianBlur5458"></feGaussianBlur></filter></defs><metadata id="metadata5"></metadata><g transform="translate(0,-81.099997)" id="layer1" inkscape:groupmode="layer" inkscape:label="Layer 1"><g id="g5145"><g transform="matrix(0.71536837,0,0,0.71536837,22.485815,31.149552)" id="g4571"><path inkscape:connector-curvature="0" id="rect4520" d="m 30.2755,95.765796 h 5.017628 v 6.809644 H 30.2755 Z" style="opacity:1;fill:#000000;fill-opacity:1;stroke:none;stroke-width:0.13748367;stroke-miterlimit:4;stroke-dasharray:none;stroke-dashoffset:0;stroke-opacity:1"></path><path inkscape:connector-curvature="0" id="circle5442" d="m 36.175589,93.924797 a 3.8930302,7.8488798 0 0 1 -3.893031,7.848883 3.8930302,7.8488798 0 0 1 -3.89303,-7.848883 3.8930302,7.8488798 0 0 1 3.89303,-7.84888 3.8930302,7.8488798 0 0 1 3.893031,7.84888 z" style="opacity:0.36800005;fill:#000000;fill-opacity:1;stroke:none;stroke-width:0.0953012;stroke-miterlimit:4;stroke-dasharray:none;stroke-dashoffset:0;stroke-opacity:1;filter:url(#filter5456)" transform="matrix(1.015998,0,0,1.015998,0.09318045,-2.6166345)"></path><path inkscape:connector-curvature="0" id="circle4522" d="m 40.579563,91.375364 a 7.974446,7.974446 0 0 1 -7.974447,7.974449 7.974446,7.974446 0 0 1 -7.974445,-7.974449 7.974446,7.974446 0 0 1 7.974445,-7.974446 7.974446,7.974446 0 0 1 7.974447,7.974446 z" style="opacity:1;fill:#000000;fill-opacity:1;stroke:none;stroke-width:0.13748367;stroke-miterlimit:4;stroke-dasharray:none;stroke-dashoffset:0;stroke-opacity:1"></path><g id="g5485" transform="matrix(1.015998,0,0,1.015998,-31.681237,-3.4778775)" style="fill:#000000"><path inkscape:connector-curvature="0" id="path4526" d="m 60.536369,86.692491 c -1.3e-5,-0.903422 -1.961821,-1.213182 -3.48482,-0.774386 -1.523,0.438796 -2.607119,1.626165 -3.124285,2.968546 -0.517166,1.34238 -0.463825,2.942632 -0.08651,4.470298 0.377319,1.527666 1.119838,3.118776 1.326374,4.228723 0.206536,1.109946 -0.103216,1.781075 -0.671145,2.2974 -0.567929,0.516328 -1.393823,0.877658 -1.135616,1.058368 0.258208,0.18072 1.703581,0.18072 2.728607,0.005 1.025027,-0.17578 3.260003,-1.373087 3.285805,-3.128282 0.0258,-1.755195 -1.368218,-4.491602 -1.084227,-6.608304 0.283991,-2.116701 2.245825,-3.61389 2.245812,-4.517313 z" style="fill:#000000;stroke:none;stroke-width:0.08749949px;stroke-linecap:butt;stroke-linejoin:miter;stroke-opacity:1"></path><path inkscape:connector-curvature="0" id="path4528" d="m 66.01182,86.847371 c 1.3e-5,-0.903422 1.961822,-1.213182 3.484821,-0.774386 1.522999,0.438795 2.607119,1.626165 3.124285,2.968546 0.517166,1.34238 0.463825,2.942632 0.08651,4.470298 -0.377319,1.527666 -1.119838,3.118776 -1.326374,4.228722 -0.206536,1.109946 0.103216,1.781076 0.671145,2.297399 0.567929,0.51633 1.393823,0.87766 1.135616,1.05837 -0.258208,0.18072 -1.703582,0.18072 -2.728608,0.005 -1.025026,-0.17578 -3.260003,-1.373088 -3.285805,-3.128283 -0.0258,-1.755194 1.368219,-4.491601 1.084228,-6.608303 -0.283991,-2.116702 -2.245826,-3.613891 -2.245813,-4.517313 z" style="fill:#000000;stroke:none;stroke-width:0.08749949px;stroke-linecap:butt;stroke-linejoin:miter;stroke-opacity:1"></path><path inkscape:connector-curvature="0" id="ellipse4530" d="m 69.00305,86.563446 a 5.6531124,2.6329565 0 0 1 -5.653113,2.632957 5.6531124,2.6329565 0 0 1 -5.653112,-2.632957 5.6531124,2.6329565 0 0 1 5.653112,-2.632956 5.6531124,2.6329565 0 0 1 5.653113,2.632956 z" style="opacity:1;fill:#000000;fill-opacity:1;stroke:none;stroke-width:0.11882431;stroke-miterlimit:4;stroke-dasharray:none;stroke-dashoffset:0;stroke-opacity:1"></path></g><g id="g5467" transform="matrix(1.015998,0,0,1.015998,0.2503686,-2.6166345)" style="fill:#000000"><path inkscape:connector-curvature="0" id="rect4514" d="m 32.374428,130.52174 h 5.644138 v 13.05207 h -5.644138 z" style="opacity:1;fill:#000000;fill-opacity:1;stroke:none;stroke-width:0.10229143;stroke-miterlimit:4;stroke-dasharray:none;stroke-dashoffset:0;stroke-opacity:1"></path><path inkscape:connector-curvature="0" id="rect4516" d="m 25.848392,130.52174 h 5.644139 v 13.05207 h -5.644139 z" style="opacity:1;fill:#000000;fill-opacity:1;stroke:none;stroke-width:0.10229143;stroke-miterlimit:4;stroke-dasharray:none;stroke-dashoffset:0;stroke-opacity:1"></path><path inkscape:connector-curvature="0" id="ellipse4538" d="m 31.492526,142.8683 a 3.0866382,1.4110347 0 0 1 -3.086638,1.41104 3.0866382,1.4110347 0 0 1 -3.086639,-1.41104 3.0866382,1.4110347 0 0 1 3.086639,-1.41103 3.0866382,1.4110347 0 0 1 3.086638,1.41103 z" style="opacity:1;fill:#000000;fill-opacity:1;stroke:none;stroke-width:0.13531885;stroke-miterlimit:4;stroke-dasharray:none;stroke-dashoffset:0;stroke-opacity:1"></path><path inkscape:connector-curvature="0" id="ellipse4540" d="m 38.371325,142.8683 a 3.0866382,1.4110347 0 0 1 -3.086638,1.41104 3.0866382,1.4110347 0 0 1 -3.086638,-1.41104 3.0866382,1.4110347 0 0 1 3.086638,-1.41103 3.0866382,1.4110347 0 0 1 3.086638,1.41103 z" style="opacity:1;fill:#000000;fill-opacity:1;stroke:none;stroke-width:0.13531885;stroke-miterlimit:4;stroke-dasharray:none;stroke-dashoffset:0;stroke-opacity:1"></path></g><path style="opacity:1;fill:#000000;fill-opacity:1;stroke:none;stroke-width:0.21052361;stroke-miterlimit:4;stroke-dasharray:none;stroke-dashoffset:0;stroke-opacity:1" d="m 26.999935,101.23677 h 11.765162 v 6.80964 H 26.999935 Z" id="rect4518" inkscape:connector-curvature="0"></path><path sodipodi:nodetypes="cccccc" inkscape:connector-curvature="0" id="path4524" d="m 25.545437,101.23677 6.86809,2.4012 6.351568,-2.4012 c 0.307997,9.83139 1.772961,19.66277 5.948847,29.49416 l -23.795384,-0.16855 c 4.152852,-8.32289 4.229848,-18.91327 4.626879,-29.32561 z" style="opacity:1;fill:#000000;fill-opacity:1;stroke:none;stroke-width:0.12803382;stroke-miterlimit:4;stroke-dasharray:none;stroke-dashoffset:0;stroke-opacity:1"></path><path style="opacity:1;fill:#000000;fill-opacity:1;stroke:none;stroke-width:0.11425237;stroke-miterlimit:4;stroke-dasharray:none;stroke-dashoffset:0;stroke-opacity:1" d="m 42.144153,105.02795 c 1.146052,0.0742 1.984049,1.3525 1.878917,2.86611 l -0.699776,10.07484 c -0.105132,1.51361 -1.112403,2.6724 -2.258456,2.59819 -1.146052,-0.0742 -1.984049,-1.35249 -1.878917,-2.86611 l 0.699776,-10.07483 c 0.105133,-1.51362 1.112404,-2.67241 2.258456,-2.5982 z" id="rect4534" inkscape:connector-curvature="0"></path><path style="opacity:1;fill:#000000;fill-opacity:1;stroke:none;stroke-width:0.09668037;stroke-miterlimit:4;stroke-dasharray:none;stroke-dashoffset:0;stroke-opacity:1" d="m 38.906377,100.53037 4.158607,-0.0128 c 0.680883,-0.002 1.241274,0.54422 1.256483,1.22495 l 0.101235,4.53093 c 0.01521,0.68072 -0.520693,1.23042 -1.201576,1.23252 l -4.158607,0.0128 c -0.680882,0.002 -1.241274,-0.54423 -1.256484,-1.22495 l -0.101234,-4.53093 c -0.01521,-0.68072 0.520694,-1.23043 1.201576,-1.23253 z" id="rect4536" inkscape:connector-curvature="0" inkscape:transform-center-x="3.9558499" inkscape:transform-center-y="0.42384106"></path><path style="opacity:1;fill:#000000;fill-opacity:1;stroke:none;stroke-width:0.11425237;stroke-miterlimit:4;stroke-dasharray:none;stroke-dashoffset:0;stroke-opacity:1" d="m 24.079539,104.78422 c 1.141221,0.12868 1.917425,1.4454 1.740367,2.95229 l -1.178524,10.03011 c -0.177058,1.5069 -1.238343,2.61644 -2.379564,2.48776 -1.141221,-0.12868 -1.917426,-1.4454 -1.740368,-2.95229 l 1.178524,-10.03012 c 0.177058,-1.50689 1.238344,-2.61643 2.379565,-2.48775 z" id="rect4543" inkscape:connector-curvature="0"></path><path style="opacity:1;fill:#000000;fill-opacity:1;stroke:none;stroke-width:0.09659746;stroke-miterlimit:4;stroke-dasharray:none;stroke-dashoffset:0;stroke-opacity:1" d="m 22.119358,100.5833 3.919156,-0.0127 c 0.698324,-0.002 1.272431,0.55798 1.287235,1.25616 l 0.09854,4.64711 c 0.0148,0.69817 -0.535468,1.26206 -1.233793,1.26433 l -3.919155,0.0127 c -0.698325,0.002 -1.272431,-0.55797 -1.287234,-1.25614 l -0.09854,-4.64712 c -0.0148,-0.69818 0.535467,-1.26207 1.233791,-1.26434 z" id="rect4545" inkscape:connector-curvature="0"></path></g><circle r="29.868731" cy="112.56989" cx="32.013245" id="path4573" style="opacity:1;fill:none;fill-opacity:1;stroke:#000000;stroke-width:2.07269239;stroke-miterlimit:4;stroke-dasharray:none;stroke-dashoffset:0;stroke-opacity:1"></circle><rect ry="0.15253206" y="95.233696" x="20.985798" height="34.319801" width="4.5096445" id="rect5107" style="opacity:1;fill:#ffffff;fill-opacity:1;stroke:#000000;stroke-width:0.31132698;stroke-miterlimit:4;stroke-dasharray:none;stroke-dashoffset:0;stroke-opacity:1"></rect><rect ry="0.14128" y="95.510597" x="11.090508" height="21.192053" width="24.30022" id="rect5109" style="opacity:1;fill:#ffffff;fill-opacity:1;stroke:#000000;stroke-width:0.30000001;stroke-miterlimit:4;stroke-dasharray:none;stroke-dashoffset:0;stroke-opacity:1"></rect><rect ry="0.09752702" y="116.81887" x="18.341394" height="1.462909" width="9.7984495" id="rect5111" style="opacity:1;fill:#000000;fill-opacity:1;stroke:#000000;stroke-width:0.24989448;stroke-miterlimit:4;stroke-dasharray:none;stroke-dashoffset:0;stroke-opacity:1"></rect><rect style="opacity:1;fill:#000000;fill-opacity:1;stroke:#000000;stroke-width:0.24989448;stroke-miterlimit:4;stroke-dasharray:none;stroke-dashoffset:0;stroke-opacity:1" id="rect5113" width="9.7984495" height="1.462909" x="18.341394" y="94.072731" ry="0.09752702"></rect><rect style="opacity:1;fill:#000000;fill-opacity:1;stroke:#000000;stroke-width:0.34639335;stroke-miterlimit:4;stroke-dasharray:none;stroke-dashoffset:0;stroke-opacity:1" id="rect5115" width="20.156696" height="1.3664101" x="13.162271" y="129.44107" ry="0.091093779"></rect><path inkscape:connector-curvature="0" id="path5117" d="m 13.704194,113.87704 4.238411,-5.50993 7.770419,5.50993 7.205298,-15.39956" style="fill:none;stroke:#000000;stroke-width:2;stroke-linecap:butt;stroke-linejoin:miter;stroke-opacity:1;stroke-miterlimit:4;stroke-dasharray:none"></path></g></g></svg> 